<svg width="20" height="20" viewBox="0 0 20 20" fill="none" xmlns="http://www.w3.org/2000/svg">
<path fill-rule="evenodd" clip-rule="evenodd" d="M18.946 0.00012207L19.9398 17.8892C20.0011 18.9921 19.1567 19.9358 18.0538 19.997C17.9984 19.9996 17.9984 19.9996 17.943 20.0001H17.943H17.9429H2.05708C0.952506 20.0001 0.0570755 19.1047 0.0570755 18.0001C0.0573323 17.9724 0.0574607 17.9585 0.0578456 17.9446C0.0582305 17.9308 0.058872 17.9169 0.0601549 17.8892L1.05399 0.00012207H18.946ZM2.946 2.00025L2.05711 18.0002H17.9429L17.054 2.00025H2.946ZM6.99997 3.99999H4.99997V6.49999C4.99997 8.90069 7.3232 11 9.99997 11C12.6767 11 15 8.90069 15 6.49999V3.99999H13V6.49999C13 7.74837 11.6148 8.99999 9.99997 8.99999C8.3851 8.99999 6.99997 7.74837 6.99997 6.49999V3.99999Z" fill="#FF3128"/>
</svg>
