<svg width="18" height="20" viewBox="0 0 18 20" fill="none" xmlns="http://www.w3.org/2000/svg">
<path fill-rule="evenodd" clip-rule="evenodd" d="M6.50006 0.833252H11.5001C12.4205 0.833252 13.1667 1.57944 13.1667 2.49992V3.33325H15.6667C16.5872 3.33325 17.3334 4.07944 17.3334 4.99992V6.66658C17.3334 7.58706 16.5872 8.33325 15.6667 8.33325H15.6L14.8334 17.4999C14.8334 18.4204 14.0872 19.1666 13.1668 19.1666H4.83343C3.91296 19.1666 3.16677 18.4204 3.16965 17.5691L2.39999 8.33325H2.33341C1.41294 8.33325 0.666748 7.58706 0.666748 6.66658V4.99992C0.666748 4.07944 1.41294 3.33325 2.33341 3.33325H4.83339V2.49992C4.83339 1.57944 5.57959 0.833252 6.50006 0.833252ZM4.07212 8.33325H13.9277L13.1696 17.4307L13.1667 17.4999H4.83338L4.07212 8.33325ZM2.33339 6.6666V4.99993H15.6667V6.6666H2.33339ZM11.5001 2.49993V3.33326H6.5001V2.49993H11.5001Z" fill="#FF3128"/>
</svg>
