<svg width="14" height="14" viewBox="0 0 14 14" fill="none" xmlns="http://www.w3.org/2000/svg">
<path fill-rule="evenodd" clip-rule="evenodd" d="M7.73073 11.1702L6.99992 11.8083L6.26911 11.1702C3.65887 8.89099 2.33325 6.87406 2.33325 4.99992C2.33325 2.34753 4.40225 0.333252 6.99992 0.333252C9.59759 0.333252 11.6666 2.34753 11.6666 4.99992C11.6666 6.87406 10.341 8.89099 7.73073 11.1702ZM2.79029 8.86885C3.06401 9.24362 3.36893 9.6248 3.7049 10.0126C2.46342 10.2922 1.66659 10.689 1.66659 10.9999C1.66659 11.5379 4.05268 12.3332 6.99992 12.3332C9.94716 12.3332 12.3333 11.5379 12.3333 10.9999C12.3333 10.689 11.5364 10.2922 10.2949 10.0126C10.6309 9.6248 10.9358 9.24362 11.2095 8.86885C12.7088 9.32378 13.6666 10.0535 13.6666 10.9999C13.6666 12.6711 10.6801 13.6666 6.99992 13.6666C3.31974 13.6666 0.333252 12.6711 0.333252 10.9999C0.333252 10.0535 1.29108 9.32378 2.79029 8.86885ZM6.99986 1.66658C8.86903 1.66658 10.3332 3.09202 10.3332 4.99991C10.3332 6.36456 9.2483 8.04384 6.99986 10.0373C4.75141 8.04384 3.66652 6.36456 3.66652 4.99991C3.66652 3.09202 5.13068 1.66658 6.99986 1.66658ZM6.99998 2.99992C8.10455 2.99992 8.99998 3.89535 8.99998 4.99992C8.99998 6.10449 8.10455 6.99992 6.99998 6.99992C5.89541 6.99992 4.99998 6.10449 4.99998 4.99992C4.99998 3.89535 5.89541 2.99992 6.99998 2.99992ZM6.33325 4.99992C6.33325 4.63173 6.63173 4.33325 6.99992 4.33325C7.36811 4.33325 7.66659 4.63173 7.66659 4.99992C7.66659 5.36811 7.36811 5.66659 6.99992 5.66659C6.63173 5.66659 6.33325 5.36811 6.33325 4.99992Z" fill="#FF3128"/>
</svg>
