<svg width="20" height="21" viewBox="0 0 20 21" fill="none" xmlns="http://www.w3.org/2000/svg">
<path fill-rule="evenodd" clip-rule="evenodd" d="M12 4.74984C12 5.02528 12.0303 5.29394 12.0879 5.55292L7.01691 7.98277C6.28361 7.17625 5.20392 6.66654 4 6.66654C1.79086 6.66654 0 8.38278 0 10.4999C0 12.617 1.79086 14.3332 4 14.3332C5.20395 14.3332 6.28366 13.8235 7.01697 13.0169L12.0879 15.4467C12.0303 15.7057 12 15.9744 12 16.2498C12 18.3669 13.7909 20.0831 16 20.0831C18.2091 20.0831 20 18.3669 20 16.2498C20 14.1327 18.2091 12.4165 16 12.4165C14.7961 12.4165 13.7164 12.9262 12.9831 13.7328L7.91209 11.3029C7.96969 11.0439 8 10.7753 8 10.4999C8 10.2244 7.96968 9.95574 7.91207 9.69674L12.9831 7.2669C13.7164 8.07344 14.7961 8.58317 16 8.58317C18.2091 8.58317 20 6.86693 20 4.74984C20 2.63275 18.2091 0.916504 16 0.916504C13.7909 0.916504 12 2.63275 12 4.74984ZM6 10.4998C6 11.5584 5.10457 12.4165 4 12.4165C2.89543 12.4165 2 11.5584 2 10.4998C2 9.44129 2.89543 8.58317 4 8.58317C5.10457 8.58317 6 9.44129 6 10.4998ZM16 6.66657C17.1046 6.66657 18 5.80845 18 4.7499C18 3.69135 17.1046 2.83323 16 2.83323C14.8954 2.83323 14 3.69135 14 4.7499C14 5.80845 14.8954 6.66657 16 6.66657ZM18 16.2499C18 17.3084 17.1046 18.1665 16 18.1665C14.8954 18.1665 14 17.3084 14 16.2499C14 15.1913 14.8954 14.3332 16 14.3332C17.1046 14.3332 18 15.1913 18 16.2499Z" fill="#FF3128"/>
</svg>
